<?xml version="1.0" standalone="no"?>
<!DOCTYPE svg PUBLIC "-//W3C//DTD SVG 20010904//EN"
 "http://www.w3.org/TR/2001/REC-SVG-20010904/DTD/svg10.dtd">
<svg version="1.0" xmlns="http://www.w3.org/2000/svg"
 width="1920.000000pt" height="1920.000000pt" viewBox="0 0 1920.000000 1920.000000"
 preserveAspectRatio="xMidYMid meet">

<g transform="translate(0.000000,1920.000000) scale(0.100000,-0.100000)"
fill="#000000" stroke="none">
<path d="M10895 14841 c-73 -18 -111 -46 -342 -255 -111 -101 -215 -181 -323
-252 l-75 -49 -120 -6 c-144 -7 -252 -40 -367 -112 -78 -49 -190 -155 -239
-228 -72 -106 -145 -282 -164 -395 -4 -25 -22 -62 -46 -94 -21 -29 -47 -65
-56 -80 -13 -23 -25 -29 -65 -32 -60 -6 -79 -23 -112 -101 -28 -65 -36 -82
-147 -292 -168 -321 -305 -758 -418 -1335 -50 -256 -113 -641 -107 -656 8 -20
-9 -59 -44 -102 -38 -48 -60 -112 -60 -177 0 -46 -5 -59 -35 -95 -41 -49 -50
-76 -42 -128 6 -36 2 -42 -98 -154 -289 -326 -333 -488 -316 -1158 8 -295 -49
-490 -290 -992 -131 -273 -198 -426 -229 -523 -21 -66 -26 -72 -84 -112 -138
-94 -206 -177 -236 -284 l-17 -63 -234 -78 c-129 -43 -280 -96 -336 -119 -289
-116 -566 -292 -768 -488 -72 -70 -112 -95 -249 -151 -51 -21 -92 -47 -116
-72 l-38 -38 -47 26 c-122 69 -329 26 -456 -93 -70 -65 -90 -127 -63 -196 4
-11 -11 -18 -62 -31 -104 -26 -215 -72 -256 -106 -41 -34 -63 -91 -52 -137 3
-15 29 -77 57 -138 l52 -110 6 -165 c5 -144 9 -175 33 -245 59 -172 168 -353
278 -465 139 -140 265 -166 351 -70 53 57 61 99 46 237 -12 103 -11 122 4 180
25 95 70 154 135 175 60 19 111 56 143 102 15 22 47 46 91 67 37 18 68 38 68
43 0 6 -5 29 -10 51 -5 22 -14 96 -21 164 -17 188 12 423 64 516 19 33 19 36
-2 -65 -18 -84 -24 -252 -12 -350 14 -110 49 -267 61 -275 5 -3 37 8 71 25
l61 31 -6 42 c-40 247 -31 471 25 635 26 77 35 75 18 -5 -18 -77 -18 -387 -1
-468 7 -33 20 -84 28 -112 l15 -53 92 46 c50 26 93 47 94 48 1 1 -4 42 -12 91
-31 189 -14 467 36 600 25 67 34 67 19 -1 -21 -92 -29 -246 -19 -359 8 -97 40
-262 54 -285 3 -5 81 28 173 72 245 118 581 269 706 317 146 57 208 66 307 46
90 -18 111 -13 161 39 25 25 38 32 48 26 40 -26 117 6 144 59 16 30 16 30 84
24 84 -7 120 9 165 73 21 31 38 44 54 44 36 0 81 24 158 85 42 34 139 90 242
142 187 94 264 151 294 217 23 52 23 80 0 132 -38 84 -126 161 -289 254 -51
29 -92 56 -92 60 0 4 66 79 146 166 255 277 388 443 688 867 l140 196 30 -16
c52 -26 295 -172 401 -241 245 -159 358 -261 413 -376 39 -81 101 -150 193
-212 38 -26 71 -56 75 -67 14 -44 -25 -183 -99 -354 -101 -232 -217 -683 -302
-1178 -61 -355 -83 -421 -166 -507 -68 -70 -88 -120 -96 -235 -5 -74 -8 -82
-29 -87 -48 -12 -97 -122 -133 -302 -42 -208 -52 -364 -26 -401 27 -39 102
-53 284 -53 91 0 228 5 304 12 107 9 164 9 260 0 195 -19 426 -24 654 -14 234
10 234 10 264 77 37 80 14 192 -47 232 -14 9 -112 38 -217 65 -193 48 -327
102 -351 140 -12 20 10 95 86 290 38 99 56 132 79 149 41 29 58 67 69 156 6
43 12 85 15 94 4 11 -7 26 -32 45 -171 128 -344 333 -412 488 -32 73 -25 89
11 26 81 -142 234 -305 378 -403 96 -65 94 -66 125 28 l19 56 -34 26 c-68 52
-223 209 -278 283 -59 77 -142 229 -142 257 0 10 20 -16 45 -56 61 -98 163
-219 241 -286 78 -66 193 -149 199 -143 3 2 20 48 39 101 l35 96 -80 67 c-143
119 -292 308 -349 442 -29 68 -20 77 15 15 50 -85 132 -188 213 -265 88 -84
222 -183 232 -171 4 5 30 73 59 153 122 332 227 590 242 590 4 0 21 11 38 25
22 19 33 40 41 80 11 52 13 55 41 55 40 0 84 44 98 98 9 33 8 48 -4 80 -16 39
-16 39 14 70 19 18 32 42 33 59 2 43 -3 86 -12 103 -6 10 0 19 20 32 58 35 80
131 45 198 -15 29 -15 37 -1 93 14 55 14 72 1 152 -8 50 -15 155 -15 236 0
138 2 150 27 205 38 83 38 169 -1 247 -82 168 -271 198 -458 73 -66 -43 -197
-178 -252 -259 -22 -31 -42 -57 -46 -57 -4 0 -26 46 -50 103 -98 232 -294 601
-512 965 -93 155 -109 188 -105 215 2 18 0 63 -4 102 -18 144 -111 279 -274
398 -38 28 -74 54 -78 57 -5 4 34 93 87 197 146 292 186 396 221 566 l5 27
398 0 c408 0 610 8 862 35 250 27 356 63 418 142 16 21 98 162 182 313 85 151
220 392 302 535 81 143 146 265 144 271 -3 7 -28 24 -56 40 l-51 27 46 41 c34
30 53 60 74 111 30 74 40 82 113 84 39 1 51 -13 35 -40 -7 -11 7 -44 56 -130
35 -63 147 -262 247 -444 609 -1099 1041 -1726 1535 -2233 l120 -123 79 21
c197 52 351 178 331 271 -4 16 -33 63 -65 103 -333 420 -1413 2003 -1795 2634
-61 100 -71 112 -97 112 -35 0 -35 4 1 42 46 50 71 140 71 261 0 185 -61 337
-185 463 -79 80 -192 144 -254 144 -46 0 -111 -30 -180 -82 -41 -31 -58 -39
-69 -31 -30 19 -22 30 50 61 122 54 222 139 234 199 9 46 -14 66 -85 71 -56 4
-60 6 -56 26 8 30 -26 87 -64 107 -30 16 -33 23 -35 65 -2 37 -7 51 -29 68
-25 20 -26 24 -15 52 16 43 4 79 -36 103 -43 27 -78 26 -184 -3 -48 -13 -106
-27 -129 -30 -39 -6 -43 -4 -63 30 -48 76 -87 79 -185 14 l-60 -40 -7 33 c-15
72 -146 168 -502 365 -221 123 -289 145 -381 123z m211 -777 c27 -14 113 -77
190 -139 76 -63 180 -145 230 -184 90 -69 114 -100 114 -146 0 -34 23 -52 88
-72 74 -21 223 -21 322 2 41 9 84 19 95 21 17 4 34 -21 112 -163 51 -92 95
-176 98 -185 5 -12 -11 -40 -53 -90 -83 -103 -130 -179 -173 -282 -20 -48 -45
-98 -54 -109 -27 -31 -45 -69 -45 -93 0 -17 5 -20 25 -16 37 7 32 -23 -11 -78
-19 -24 -88 -130 -152 -235 -194 -317 -329 -477 -448 -532 l-57 -26 -251 28
c-357 38 -631 74 -701 90 -37 8 -86 31 -128 58 -82 54 -161 78 -292 86 l-100
7 58 8 c103 15 249 -9 340 -55 37 -19 37 -19 37 0 0 38 -38 217 -54 255 -9 21
-16 40 -16 41 0 1 17 5 38 8 71 12 265 159 413 314 117 124 169 188 169 212 0
49 -60 131 -145 198 -36 28 -39 33 -30 59 10 29 11 29 120 35 117 7 188 27
206 60 21 41 -41 110 -153 169 -50 27 -58 35 -58 60 0 16 -4 31 -9 34 -4 3
-11 67 -14 143 -3 76 -13 164 -21 196 -9 32 -16 65 -16 73 0 20 112 175 172
238 53 55 62 56 154 10z m-343 -1115 c26 -22 47 -44 47 -49 0 -24 -195 -42
-227 -22 -8 5 10 25 54 60 36 29 69 52 72 52 3 0 27 -18 54 -41z m90 -108 c33
-56 27 -61 -70 -61 -149 0 -233 22 -233 59 0 3 37 5 82 3 49 -1 103 3 133 11
70 20 69 20 88 -12z m-290 -102 c-7 -27 -19 -32 -44 -19 l-21 12 23 24 c25 27
51 17 42 -17z m170 14 c59 -3 106 -9 105 -13 -2 -4 -31 -37 -65 -74 -62 -65
-63 -66 -82 -47 -10 10 -41 31 -67 47 -27 15 -51 29 -52 30 -2 2 1 19 8 39 9
28 16 35 29 30 9 -4 65 -9 124 -12z m-238 -57 c19 -8 35 -20 35 -26 0 -21 -42
-110 -50 -105 -4 2 -10 25 -13 50 -4 25 -9 56 -13 70 -7 29 -5 30 41 11z m-52
-103 l6 -53 -33 0 c-19 0 -47 3 -64 6 l-31 6 52 58 c32 36 54 54 58 47 4 -7 9
-36 12 -64z m177 46 c68 -41 72 -76 9 -98 -40 -14 -129 -15 -129 -1 0 24 56
120 70 120 8 0 31 -9 50 -21z m-191 -135 c7 -6 -172 -173 -186 -174 -15 0 -43
51 -43 80 0 11 4 20 10 20 16 0 80 61 80 77 0 12 11 13 68 8 37 -4 69 -9 71
-11z m190 2 c-24 -23 -154 -125 -156 -122 -1 1 2 18 7 37 6 18 10 46 10 61 0
28 0 28 72 28 39 0 69 -2 67 -4z m-173 -91 c-4 -19 -21 -50 -39 -69 -31 -33
-100 -61 -120 -49 -5 3 28 43 74 89 46 47 85 80 87 74 2 -6 1 -26 -2 -45z"/>
<path d="M13237 9746 c-127 -47 -199 -146 -199 -276 -1 -50 5 -80 23 -119 l24
-52 42 63 c22 35 69 91 102 126 61 62 205 175 249 195 32 15 28 24 -20 48 -54
28 -167 35 -221 15z"/>
<path d="M13425 9623 c-139 -95 -246 -205 -318 -329 -4 -6 2 -19 12 -28 18
-16 21 -13 74 62 64 92 158 180 274 259 83 57 94 71 70 92 -11 8 -36 -5 -112
-56z"/>
<path d="M13480 9573 c-47 -32 -116 -87 -154 -123 -68 -64 -166 -191 -166
-215 0 -24 101 -58 170 -59 109 0 199 53 258 153 37 64 43 177 12 249 -12 29
-26 52 -29 52 -4 0 -45 -26 -91 -57z"/>
</g>
</svg>
